<?xml version="1.0" standalone="no"?>
<!DOCTYPE svg PUBLIC "-//W3C//DTD SVG 20010904//EN"
 "http://www.w3.org/TR/2001/REC-SVG-20010904/DTD/svg10.dtd">
<svg version="1.0" xmlns="http://www.w3.org/2000/svg"
 width="542.000000pt" height="542.000000pt" viewBox="0 0 542.000000 542.000000"
 preserveAspectRatio="xMidYMid meet">

<g transform="translate(0.000000,542.000000) scale(0.100000,-0.100000)"
fill="#000000" stroke="none">
<path d="M600 4775 l-155 -155 828 -828 827 -827 1 -290 c1 -160 4 -347 7
-418 4 -70 5 -127 2 -127 -3 0 -16 25 -28 54 -61 140 -201 386 -606 1066 -241
404 -447 746 -456 760 l-18 25 -281 -3 -281 -3 0 -1369 0 -1370 275 0 275 0
-1 818 c-1 449 -4 874 -7 945 -4 70 -5 127 -2 126 3 0 43 -78 90 -172 61 -123
222 -393 564 -945 l478 -772 269 0 269 0 0 562 0 563 145 -145 c118 -117 146
-151 151 -180 25 -148 91 -319 165 -427 47 -69 164 -188 234 -238 116 -83 260
-144 405 -171 l75 -14 418 -418 417 -417 157 158 158 157 -299 299 c-274 274
-297 299 -275 306 101 31 308 199 394 319 221 312 257 751 90 1103 -56 120
-113 199 -206 289 -117 113 -247 187 -424 241 -86 26 -100 27 -295 27 -195 0
-209 -1 -295 -27 -284 -87 -482 -247 -614 -497 l-47 -89 -177 177 -177 177 0
491 c0 270 -2 493 -4 495 -2 2 -126 3 -275 1 l-271 -3 0 -217 0 -217 -668 668
c-367 367 -669 667 -672 667 -3 0 -75 -70 -160 -155z m3522 -1884 c111 -38
189 -109 251 -229 112 -215 114 -541 6 -762 -52 -105 -124 -179 -211 -219
-116 -53 -78 -77 -412 259 l-299 299 7 96 c17 228 103 417 228 503 41 28 135
66 188 76 50 9 187 -4 242 -23z"/>
</g>
</svg>
